<svg width="91" height="62" viewBox="0 0 91 62" fill="none" xmlns="http://www.w3.org/2000/svg">
<path fill-rule="evenodd" clip-rule="evenodd" d="M15.5667 59.8474C14.2487 61.1654 12.1009 61.1733 10.8854 59.7602C7.77575 56.1453 5.25566 52.0534 3.42542 47.6348C1.16396 42.1752 0 36.3236 0 30.4141C0 24.5046 1.16396 18.653 3.42542 13.1933C5.25567 8.77474 7.77576 4.68291 10.8854 1.068C12.1009 -0.345069 14.2487 -0.33725 15.5667 0.980769C16.8847 2.29879 16.8717 4.42685 15.675 5.85589C13.182 8.83275 11.1525 12.177 9.66161 15.7764C7.73937 20.4172 6.75 25.391 6.75 30.4141C6.75 35.4372 7.73936 40.411 9.66161 45.0517C11.1525 48.6511 13.182 51.9954 15.675 54.9723C16.8717 56.4013 16.8847 58.5294 15.5667 59.8474ZM24.0696 51.3445C23.1324 52.2817 21.6051 52.2873 20.7407 51.2824C18.5294 48.7118 16.7374 45.8021 15.4359 42.66C13.8277 38.7775 13 34.6164 13 30.4141C13 26.2118 13.8277 22.0506 15.4359 18.1682C16.7374 15.0261 18.5294 12.1164 20.7407 9.54576C21.6051 8.54091 23.1324 8.54647 24.0696 9.48372C25.0069 10.421 24.9977 11.9343 24.1466 12.9505C22.3739 15.0674 20.9307 17.4455 19.8705 20.0051C18.5035 23.3052 17.8 26.8421 17.8 30.4141C17.8 33.986 18.5035 37.523 19.8705 40.8231C20.9307 43.3827 22.3739 45.7608 24.1466 47.8777C24.9977 48.8939 25.0069 50.4072 24.0696 51.3445ZM31.7889 37.1216C34.9627 37.1216 36.9199 35.5259 36.9199 33.0044V32.9956C36.9199 31.012 35.7474 29.9364 33.0584 29.381L31.7095 29.1077C30.2108 28.7991 29.5937 28.3054 29.5937 27.4767V27.4679C29.5937 26.5157 30.4665 25.9162 31.7801 25.9074C33.1201 25.9074 34.0018 26.5421 34.1516 27.4502L34.1693 27.556H36.6731L36.6643 27.4414C36.4968 25.3167 34.7511 23.7474 31.7801 23.7474C28.9589 23.7474 26.9312 25.3079 26.9312 27.6706V27.6794C26.9312 29.6102 28.0684 30.8445 30.7133 31.3823L32.0534 31.6556C33.6315 31.9818 34.2574 32.449 34.2574 33.2866V33.2954C34.2574 34.274 33.2788 34.9528 31.8594 34.9528C30.3695 34.9528 29.338 34.3092 29.241 33.3571L29.2322 33.2689H26.6667L26.6755 33.41C26.8254 35.6669 28.7473 37.1216 31.7889 37.1216ZM45.0044 37.1216C48.7601 37.1216 51.1229 34.5473 51.1229 30.4389V30.4213C51.1229 26.3129 48.7513 23.7474 45.0044 23.7474C41.2575 23.7474 38.8771 26.3041 38.8771 30.4213V30.4389C38.8771 34.5473 41.2222 37.1216 45.0044 37.1216ZM45.0044 34.8647C42.9061 34.8647 41.5925 33.1279 41.5925 30.4389V30.4213C41.5925 27.7235 42.9326 26.0044 45.0044 26.0044C47.0674 26.0044 48.4075 27.7235 48.4075 30.4213V30.4389C48.4075 33.1279 47.0762 34.8647 45.0044 34.8647ZM63.3333 33.0044C63.3333 35.5259 61.3761 37.1216 58.2023 37.1216C55.1607 37.1216 53.2388 35.6669 53.0889 33.41L53.0801 33.2689H55.6456L55.6544 33.3571C55.7514 34.3092 56.7829 34.9528 58.2728 34.9528C59.6922 34.9528 60.6708 34.274 60.6708 33.2954V33.2866C60.6708 32.449 60.0449 31.9818 58.4668 31.6556L57.1267 31.3823C54.4818 30.8445 53.3446 29.6102 53.3446 27.6794V27.6706C53.3446 25.3079 55.3723 23.7474 58.1935 23.7474C61.1645 23.7474 62.9101 25.3167 63.0777 27.4414L63.0865 27.556H60.5827L60.565 27.4502C60.4152 26.5421 59.5335 25.9074 58.1935 25.9074C56.8799 25.9162 56.007 26.5157 56.007 27.4679V27.4767C56.007 28.3054 56.6242 28.7991 58.1229 29.1077L59.4718 29.381C62.1608 29.9364 63.3333 31.012 63.3333 32.9956V33.0044ZM74.6124 60.2615C75.9304 61.5795 78.0783 61.5873 79.2939 60.1742C82.4036 56.5593 84.9238 52.4675 86.7541 48.0489C89.0157 42.5893 90.1797 36.7376 90.1797 30.8282C90.1797 24.9187 89.0157 19.067 86.7541 13.6074C84.9238 9.1888 82.4036 5.09698 79.2939 1.48207C78.0783 0.0689937 75.9304 0.0768121 74.6124 1.39483C73.2943 2.71285 73.3073 4.84091 74.5041 6.26995C76.9971 9.24681 79.0267 12.5911 80.5177 16.1905C82.44 20.8312 83.4294 25.8051 83.4294 30.8282C83.4294 35.8512 82.44 40.8251 80.5177 45.4658C79.0267 49.0652 76.9971 52.4095 74.5041 55.3864C73.3073 56.8154 73.2943 58.9435 74.6124 60.2615ZM69.4387 51.6964C68.5742 52.7013 67.0469 52.6957 66.1096 51.7585C65.1723 50.8212 65.1815 49.3079 66.0326 48.2917C67.8054 46.1749 69.2487 43.7967 70.3089 41.2371C71.6759 37.9371 72.3795 34.4001 72.3795 30.8281C72.3795 27.2562 71.6759 23.7192 70.3089 20.4191C69.2487 17.8596 67.8054 15.4814 66.0326 13.3645C65.1815 12.3483 65.1723 10.835 66.1096 9.89776C67.0469 8.9605 68.5742 8.95494 69.4387 9.95979C71.65 12.5304 73.4422 15.4401 74.7437 18.5822C76.352 22.4647 77.1797 26.6258 77.1797 30.8281C77.1797 35.0304 76.352 39.1916 74.7437 43.074C73.4422 46.2161 71.65 49.1258 69.4387 51.6964Z" fill="white"/>
</svg>
